<?xml version="1.0" encoding="iso-8859-1"?>
<!-- Generator: Adobe Illustrator 19.0.0, SVG Export Plug-In . SVG Version: 6.00 Build 0)  -->
<svg xmlns="http://www.w3.org/2000/svg" xmlns:xlink="http://www.w3.org/1999/xlink" version="1.1" id="Layer_1" x="0px" y="0px" viewBox="0 0 512.002 512.002" style="enable-background:new 0 0 512.002 512.002;" xml:space="preserve" width="512" height="512">
<g id="XMLID_1727_">
	<g id="XMLID_130_">
		<path id="XMLID_160_" d="M80,230.994v128c0,5.523,4.478,10,10,10h128c5.522,0,10-4.477,10-10v-128c0-5.523-4.478-10-10-10H90    C84.478,220.994,80,225.471,80,230.994z M100,240.994h108v108H100V240.994z"/>
		<path id="XMLID_161_" d="M180.429,267.423L146.5,301.352l-11.429-11.429c-3.906-3.905-10.236-3.905-14.143,0    c-3.905,3.905-3.905,10.237,0,14.143l18.5,18.5c1.953,1.953,4.512,2.929,7.071,2.929s5.118-0.976,7.071-2.929l41-41    c3.905-3.905,3.905-10.237,0-14.143C190.665,263.518,184.335,263.518,180.429,267.423z"/>
		<path id="XMLID_164_" d="M507,113.392l-22.517-13l6-10.393c11.579-20.057,4.683-45.794-15.373-57.373    C455.054,21.046,429.316,27.944,417.737,48L308,238.07V114.994c0-5.523-4.478-10-10-10H10c-5.522,0-10,4.477-10,10v360    c0,5.523,4.478,10,10,10h104c5.522,0,10-4.477,10-10s-4.478-10-10-10H20v-300h70c5.522,0,10-4.477,10-10s-4.478-10-10-10H20v-20    h268v155c0,0.223,0.019,0.441,0.033,0.66l-27.998,48.495l-56.834,98.438c-2.373,4.11-1.53,9.321,2.017,12.474    c1.887,1.677,4.262,2.526,6.646,2.526c2.096,0,4.199-0.657,5.979-1.986l7.774-5.803c16.763-12.509,37.541-19.295,58.427-19.048    c0.037,0,0.072,0,0.108,0c1.343,0,2.647-0.271,3.848-0.772v50.016h-94c-5.522,0-10,4.477-10,10s4.478,10,10,10h104    c5.522,0,10-4.477,10-10v-90.122l1.494-2.546c2.848-4.853,7.026-8.722,12.084-11.191c0.007-0.004,0.014-0.008,0.021-0.012    c0.222-0.109,0.435-0.233,0.647-0.357c1.548-0.906,2.777-2.169,3.619-3.64l42.657-73.883c3.014-0.367,5.827-2.091,7.461-4.923    l98.5-170.607l13.856,8l-64,110.851c-2.762,4.783-1.123,10.899,3.66,13.66c1.575,0.909,3.294,1.342,4.99,1.341    c3.456,0,6.818-1.793,8.67-5.001l69-119.511C513.422,122.27,511.783,116.154,507,113.392z M465.11,49.947    c10.506,6.065,14.118,19.547,8.053,30.053l-6,10.393l-38.105-22l6-10.392C441.123,47.495,454.606,43.884,465.11,49.947z     M319.021,266.98l15.589,9l15.589,9l-36.667,63.509l-31.177-18L319.021,266.98z M278.374,395.84    c-13.216,0.541-26.281,3.37-38.525,8.271l32.507-56.302l26.693,15.412c-2.588,2.706-4.881,5.706-6.805,8.983L278.374,395.84z     M363.663,269.659l-19.053-11l-19.053-11l93.5-161.947l38.105,22L363.663,269.659z"/>
		<path id="XMLID_168_" d="M137.069,162.064c1.86-1.86,2.931-4.44,2.931-7.07c0-2.63-1.07-5.21-2.931-7.07    c-1.859-1.86-4.439-2.93-7.069-2.93s-5.21,1.07-7.07,2.93c-1.86,1.86-2.93,4.44-2.93,7.07c0,2.63,1.069,5.21,2.93,7.07    s4.44,2.93,7.07,2.93S135.21,163.924,137.069,162.064z"/>
		<path id="XMLID_169_" d="M154,464.994c-2.63,0-5.21,1.07-7.07,2.93c-1.86,1.86-2.93,4.44-2.93,7.07c0,2.63,1.069,5.21,2.93,7.07    s4.43,2.93,7.07,2.93c2.63,0,5.21-1.07,7.069-2.93c1.86-1.86,2.931-4.44,2.931-7.07c0-2.63-1.07-5.21-2.931-7.07    C159.21,466.064,156.63,464.994,154,464.994z"/>
	</g>
</g>















</svg>
